<svg width="232" height="253" viewBox="0 0 232 253" fill="none" xmlns="http://www.w3.org/2000/svg">
<g filter="url(#filter0_dddddd_1365_3967)">
<rect x="80.3511" y="2" width="70.951" height="70.951" rx="20" fill="#005046"/>
</g>
<path d="M120.934 47.7237V31.952H107.943V47.7237H110.969V46.788C110.969 45.6115 111.892 44.6525 113.009 44.6525H115.868C116.987 44.6525 117.916 45.6115 117.916 46.788V47.7237H120.934ZM111.53 42.0853C111.53 42.169 111.515 42.256 111.485 42.3333C111.454 42.4106 111.412 42.482 111.356 42.5414C111.3 42.6005 111.232 42.6453 111.159 42.6773C111.085 42.7093 111.003 42.7251 110.923 42.7251H109.49C109.411 42.7251 109.329 42.7093 109.255 42.6773C109.182 42.6453 109.114 42.6005 109.058 42.5414C109.002 42.4823 108.959 42.4108 108.929 42.3333C108.899 42.256 108.883 42.1692 108.883 42.0853V40.5897C108.883 40.506 108.899 40.4192 108.929 40.3417C108.959 40.2644 109.002 40.193 109.058 40.1336C109.114 40.0745 109.182 40.0297 109.255 39.9977C109.329 39.9657 109.411 39.9496 109.49 39.9496H110.923C111.003 39.9496 111.085 39.9654 111.159 39.9977C111.232 40.0297 111.3 40.0745 111.356 40.1336C111.412 40.193 111.454 40.2641 111.485 40.3417C111.515 40.4189 111.53 40.5057 111.53 40.5897V42.0853ZM111.53 37.6623C111.53 37.746 111.515 37.8328 111.485 37.9103C111.454 37.9876 111.412 38.059 111.356 38.1181C111.3 38.1775 111.232 38.222 111.159 38.254C111.085 38.286 111.003 38.3022 110.923 38.3022H109.49C109.411 38.3022 109.329 38.2863 109.255 38.254C109.182 38.222 109.114 38.1773 109.058 38.1181C109.002 38.059 108.959 37.9876 108.929 37.9103C108.899 37.833 108.883 37.746 108.883 37.6623V36.1587C108.883 36.0751 108.899 35.9962 108.929 35.9187C108.959 35.8414 109.002 35.77 109.058 35.7106C109.114 35.6515 109.182 35.5988 109.255 35.5665C109.329 35.5345 109.411 35.5184 109.49 35.5184H110.923C111.003 35.5184 111.085 35.5343 111.159 35.5665C111.232 35.5985 111.3 35.6512 111.356 35.7106C111.412 35.7697 111.454 35.8411 111.485 35.9187C111.515 35.996 111.53 36.0748 111.53 36.1587V37.6623ZM113.115 36.0868C113.115 36.0031 113.13 35.9164 113.161 35.8388C113.191 35.7615 113.234 35.6901 113.29 35.6308C113.346 35.5716 113.413 35.5269 113.487 35.4949C113.56 35.4629 113.643 35.447 113.722 35.447H115.004C115.083 35.447 115.165 35.4629 115.239 35.4949C115.312 35.5269 115.38 35.5716 115.436 35.6308C115.492 35.6899 115.535 35.7613 115.565 35.8388C115.595 35.9161 115.611 36.0029 115.611 36.0868V37.4305C115.611 37.5141 115.596 37.593 115.565 37.6703C115.535 37.7476 115.492 37.819 115.436 37.8783C115.38 37.9375 115.312 37.9902 115.239 38.0222C115.166 38.0542 115.083 38.0703 115.004 38.0703H113.722C113.643 38.0703 113.56 38.0544 113.487 38.0222C113.414 37.9902 113.346 37.9375 113.29 37.8783C113.234 37.8192 113.191 37.7478 113.161 37.6703C113.131 37.593 113.115 37.5141 113.115 37.4305V36.0868ZM115.648 41.8934C115.648 41.977 115.633 42.0559 115.602 42.1334C115.572 42.2107 115.53 42.2821 115.474 42.3412C115.417 42.4006 115.35 42.4531 115.276 42.4853C115.203 42.5173 115.121 42.5332 115.041 42.5332H113.722C113.642 42.5332 113.56 42.5173 113.487 42.4853C113.413 42.4533 113.346 42.4006 113.289 42.3412C113.233 42.2821 113.191 42.2107 113.16 42.1334C113.13 42.0561 113.115 41.9773 113.115 41.8934V40.5098C113.115 40.4261 113.13 40.3394 113.16 40.2618C113.191 40.1845 113.233 40.1131 113.289 40.054C113.346 39.9949 113.413 39.9501 113.487 39.9181C113.56 39.8861 113.642 39.87 113.722 39.87H115.041C115.121 39.87 115.203 39.8858 115.276 39.9181C115.35 39.9501 115.417 39.9949 115.474 40.054C115.53 40.1131 115.572 40.1845 115.602 40.2618C115.633 40.3394 115.648 40.4261 115.648 40.5098V41.8934ZM117.347 36.1587C117.347 36.0751 117.362 35.9962 117.392 35.9187C117.423 35.8414 117.465 35.77 117.521 35.7106C117.577 35.6515 117.645 35.5988 117.718 35.5665C117.792 35.5345 117.874 35.5184 117.953 35.5184H119.387C119.466 35.5184 119.548 35.5343 119.622 35.5665C119.695 35.5985 119.763 35.6512 119.819 35.7106C119.875 35.7697 119.918 35.8411 119.948 35.9187C119.978 35.996 119.993 36.0748 119.993 36.1587V37.6623C119.993 37.746 119.978 37.8328 119.948 37.9103C119.918 37.9876 119.875 38.059 119.819 38.1181C119.763 38.1775 119.695 38.222 119.622 38.254C119.549 38.286 119.466 38.3022 119.387 38.3022H117.953C117.874 38.3022 117.792 38.2863 117.718 38.254C117.645 38.222 117.577 38.1773 117.521 38.1181C117.465 38.059 117.423 37.9876 117.392 37.9103C117.362 37.833 117.347 37.746 117.347 37.6623V36.1587ZM117.719 42.677C117.645 42.645 117.578 42.6002 117.521 42.5411C117.465 42.482 117.423 42.4106 117.393 42.333C117.362 42.2558 117.347 42.169 117.347 42.085V40.5897C117.347 40.506 117.362 40.4192 117.393 40.3417C117.423 40.2644 117.465 40.193 117.521 40.1336C117.578 40.0745 117.645 40.0297 117.719 39.9977C117.792 39.9657 117.874 39.9496 117.954 39.9496H119.387C119.466 39.9496 119.549 39.9654 119.622 39.9977C119.695 40.0297 119.763 40.0745 119.819 40.1336C119.875 40.193 119.918 40.2641 119.948 40.3417C119.979 40.4189 119.994 40.5057 119.994 40.5897V42.0853C119.994 42.169 119.979 42.256 119.948 42.3333C119.918 42.4106 119.875 42.482 119.819 42.5414C119.763 42.6005 119.696 42.6453 119.622 42.6773C119.549 42.7093 119.466 42.7251 119.387 42.7251H117.953C117.874 42.7251 117.792 42.709 117.719 42.677Z" fill="white"/>
<path d="M123.673 28.0151H111.161L108.755 30.6716H121.258L123.673 28.0151Z" fill="white"/>
<path d="M122.147 46.7655L124.498 44.1688V28.9561L122.147 31.5436V46.7655Z" fill="white"/>
<path d="M113.008 45.9294C112.548 45.9294 112.18 46.3176 112.18 46.7893V47.7216H116.699V46.7893C116.699 46.3176 116.332 45.9294 115.869 45.9294H113.008Z" fill="white"/>
<defs>
<filter id="filter0_dddddd_1365_3967" x="0.351074" y="0.703704" width="230.951" height="252.247" filterUnits="userSpaceOnUse" color-interpolation-filters="sRGB">
<feFlood flood-opacity="0" result="BackgroundImageFix"/>
<feColorMatrix in="SourceAlpha" type="matrix" values="0 0 0 0 0 0 0 0 0 0 0 0 0 0 0 0 0 0 127 0" result="hardAlpha"/>
<feOffset dy="1.85185"/>
<feGaussianBlur stdDeviation="1.57407"/>
<feColorMatrix type="matrix" values="0 0 0 0 0.639216 0 0 0 0 0.733333 0 0 0 0 0.423529 0 0 0 0.0168519 0"/>
<feBlend mode="normal" in2="BackgroundImageFix" result="effect1_dropShadow_1365_3967"/>
<feColorMatrix in="SourceAlpha" type="matrix" values="0 0 0 0 0 0 0 0 0 0 0 0 0 0 0 0 0 0 127 0" result="hardAlpha"/>
<feOffset dy="8.14815"/>
<feGaussianBlur stdDeviation="3.25926"/>
<feColorMatrix type="matrix" values="0 0 0 0 0.639216 0 0 0 0 0.733333 0 0 0 0 0.423529 0 0 0 0.0274815 0"/>
<feBlend mode="normal" in2="effect1_dropShadow_1365_3967" result="effect2_dropShadow_1365_3967"/>
<feColorMatrix in="SourceAlpha" type="matrix" values="0 0 0 0 0 0 0 0 0 0 0 0 0 0 0 0 0 0 127 0" result="hardAlpha"/>
<feOffset dy="20"/>
<feGaussianBlur stdDeviation="6.5"/>
<feColorMatrix type="matrix" values="0 0 0 0 0.639216 0 0 0 0 0.733333 0 0 0 0 0.423529 0 0 0 0.035 0"/>
<feBlend mode="normal" in2="effect2_dropShadow_1365_3967" result="effect3_dropShadow_1365_3967"/>
<feColorMatrix in="SourceAlpha" type="matrix" values="0 0 0 0 0 0 0 0 0 0 0 0 0 0 0 0 0 0 127 0" result="hardAlpha"/>
<feOffset dy="38.5185"/>
<feGaussianBlur stdDeviation="12.7407"/>
<feColorMatrix type="matrix" values="0 0 0 0 0.639216 0 0 0 0 0.733333 0 0 0 0 0.423529 0 0 0 0.0425185 0"/>
<feBlend mode="normal" in2="effect3_dropShadow_1365_3967" result="effect4_dropShadow_1365_3967"/>
<feColorMatrix in="SourceAlpha" type="matrix" values="0 0 0 0 0 0 0 0 0 0 0 0 0 0 0 0 0 0 127 0" result="hardAlpha"/>
<feOffset dy="64.8148"/>
<feGaussianBlur stdDeviation="23.4259"/>
<feColorMatrix type="matrix" values="0 0 0 0 0.639216 0 0 0 0 0.733333 0 0 0 0 0.423529 0 0 0 0.0531481 0"/>
<feBlend mode="normal" in2="effect4_dropShadow_1365_3967" result="effect5_dropShadow_1365_3967"/>
<feColorMatrix in="SourceAlpha" type="matrix" values="0 0 0 0 0 0 0 0 0 0 0 0 0 0 0 0 0 0 127 0" result="hardAlpha"/>
<feOffset dy="100"/>
<feGaussianBlur stdDeviation="40"/>
<feColorMatrix type="matrix" values="0 0 0 0 0.639216 0 0 0 0 0.733333 0 0 0 0 0.423529 0 0 0 0.07 0"/>
<feBlend mode="normal" in2="effect5_dropShadow_1365_3967" result="effect6_dropShadow_1365_3967"/>
<feBlend mode="normal" in="SourceGraphic" in2="effect6_dropShadow_1365_3967" result="shape"/>
</filter>
</defs>
</svg>
