<svg width="232" height="253" viewBox="0 0 232 253" fill="none" xmlns="http://www.w3.org/2000/svg">
<g filter="url(#filter0_dddddd_1365_3953)">
<rect x="80.1411" y="2" width="70.951" height="70.951" rx="20" fill="#005046"/>
</g>
<path d="M125.158 48.4308C125.549 48.8213 126.182 48.8213 126.573 48.4308C126.963 48.0403 126.963 47.4071 126.573 47.0166L125.158 48.4308ZM126.573 47.0166L120.796 41.2399L119.382 42.6541L125.158 48.4308L126.573 47.0166ZM121.468 36.1704C121.468 40.1221 118.264 43.3257 114.312 43.3257V45.3257C119.369 45.3257 123.468 41.2267 123.468 36.1704H121.468ZM114.312 43.3257C110.361 43.3257 107.157 40.1221 107.157 36.1704H105.157C105.157 41.2267 109.256 45.3257 114.312 45.3257V43.3257ZM107.157 36.1704C107.157 32.2186 110.361 29.0151 114.312 29.0151V27.0151C109.256 27.0151 105.157 31.114 105.157 36.1704H107.157ZM114.312 29.0151C118.264 29.0151 121.468 32.2186 121.468 36.1704H123.468C123.468 31.114 119.369 27.0151 114.312 27.0151V29.0151Z" fill="white"/>
<defs>
<filter id="filter0_dddddd_1365_3953" x="0.141113" y="0.703704" width="230.951" height="252.247" filterUnits="userSpaceOnUse" color-interpolation-filters="sRGB">
<feFlood flood-opacity="0" result="BackgroundImageFix"/>
<feColorMatrix in="SourceAlpha" type="matrix" values="0 0 0 0 0 0 0 0 0 0 0 0 0 0 0 0 0 0 127 0" result="hardAlpha"/>
<feOffset dy="1.85185"/>
<feGaussianBlur stdDeviation="1.57407"/>
<feColorMatrix type="matrix" values="0 0 0 0 0.858824 0 0 0 0 0.854902 0 0 0 0 0.572549 0 0 0 0.0168519 0"/>
<feBlend mode="normal" in2="BackgroundImageFix" result="effect1_dropShadow_1365_3953"/>
<feColorMatrix in="SourceAlpha" type="matrix" values="0 0 0 0 0 0 0 0 0 0 0 0 0 0 0 0 0 0 127 0" result="hardAlpha"/>
<feOffset dy="8.14815"/>
<feGaussianBlur stdDeviation="3.25926"/>
<feColorMatrix type="matrix" values="0 0 0 0 0.858824 0 0 0 0 0.854902 0 0 0 0 0.572549 0 0 0 0.0274815 0"/>
<feBlend mode="normal" in2="effect1_dropShadow_1365_3953" result="effect2_dropShadow_1365_3953"/>
<feColorMatrix in="SourceAlpha" type="matrix" values="0 0 0 0 0 0 0 0 0 0 0 0 0 0 0 0 0 0 127 0" result="hardAlpha"/>
<feOffset dy="20"/>
<feGaussianBlur stdDeviation="6.5"/>
<feColorMatrix type="matrix" values="0 0 0 0 0.858824 0 0 0 0 0.854902 0 0 0 0 0.572549 0 0 0 0.035 0"/>
<feBlend mode="normal" in2="effect2_dropShadow_1365_3953" result="effect3_dropShadow_1365_3953"/>
<feColorMatrix in="SourceAlpha" type="matrix" values="0 0 0 0 0 0 0 0 0 0 0 0 0 0 0 0 0 0 127 0" result="hardAlpha"/>
<feOffset dy="38.5185"/>
<feGaussianBlur stdDeviation="12.7407"/>
<feColorMatrix type="matrix" values="0 0 0 0 0.858824 0 0 0 0 0.854902 0 0 0 0 0.572549 0 0 0 0.0425185 0"/>
<feBlend mode="normal" in2="effect3_dropShadow_1365_3953" result="effect4_dropShadow_1365_3953"/>
<feColorMatrix in="SourceAlpha" type="matrix" values="0 0 0 0 0 0 0 0 0 0 0 0 0 0 0 0 0 0 127 0" result="hardAlpha"/>
<feOffset dy="64.8148"/>
<feGaussianBlur stdDeviation="23.4259"/>
<feColorMatrix type="matrix" values="0 0 0 0 0.858824 0 0 0 0 0.854902 0 0 0 0 0.572549 0 0 0 0.0531481 0"/>
<feBlend mode="normal" in2="effect4_dropShadow_1365_3953" result="effect5_dropShadow_1365_3953"/>
<feColorMatrix in="SourceAlpha" type="matrix" values="0 0 0 0 0 0 0 0 0 0 0 0 0 0 0 0 0 0 127 0" result="hardAlpha"/>
<feOffset dy="100"/>
<feGaussianBlur stdDeviation="40"/>
<feColorMatrix type="matrix" values="0 0 0 0 0.858824 0 0 0 0 0.854902 0 0 0 0 0.572549 0 0 0 0.07 0"/>
<feBlend mode="normal" in2="effect5_dropShadow_1365_3953" result="effect6_dropShadow_1365_3953"/>
<feBlend mode="normal" in="SourceGraphic" in2="effect6_dropShadow_1365_3953" result="shape"/>
</filter>
</defs>
</svg>
