<svg width="232" height="253" viewBox="0 0 232 253" fill="none" xmlns="http://www.w3.org/2000/svg">
<g filter="url(#filter0_dddddd_1365_3960)">
<rect x="80.2461" y="2" width="70.951" height="70.951" rx="20" fill="#005046"/>
</g>
<path d="M111.73 46.5351L110.533 47.7237L106.261 43.5909L109.322 40.5743C109.942 39.9589 110.724 39.5295 111.578 39.3356C112.433 39.1418 113.325 39.1912 114.153 39.4783L114.825 39.7115H118.951C119.126 39.7115 119.299 39.7462 119.459 39.8137C119.62 39.8812 119.765 39.98 119.887 40.1044C120.008 40.2288 120.104 40.3761 120.167 40.5377C120.23 40.6992 120.259 40.8717 120.254 41.0449C120.234 41.3872 120.082 41.7086 119.829 41.9421C119.576 42.1756 119.242 42.303 118.897 42.2978H116.421C116.287 42.2978 116.158 42.3508 116.063 42.445C115.968 42.5393 115.915 42.6672 115.915 42.8006C115.915 42.9339 115.968 43.0618 116.063 43.1561C116.158 43.2504 116.287 43.3033 116.421 43.3033H118.905C119.511 43.3063 120.094 43.0778 120.535 42.6653C120.976 42.2527 121.24 41.6877 121.273 41.0871C121.273 41.0771 121.273 41.067 121.273 41.0549L123.57 38.4868C123.803 38.218 124.132 38.0487 124.487 38.0143C124.843 37.9798 125.199 38.0828 125.48 38.3018C125.619 38.4162 125.734 38.5571 125.817 38.7163C125.9 38.8754 125.951 39.0496 125.965 39.2284C125.98 39.4072 125.958 39.5871 125.902 39.7575C125.845 39.9279 125.755 40.0852 125.636 40.2203L121.05 45.4492C120.747 45.7936 120.374 46.0695 119.954 46.2583C119.535 46.447 119.08 46.5442 118.619 46.5432L111.73 46.5351ZM121.2 35.1665C121.2 34.9131 121.098 34.6702 120.918 34.491C120.738 34.3119 120.493 34.2112 120.238 34.2112H118.82V32.8035C118.808 32.558 118.702 32.3262 118.523 32.1565C118.344 31.9867 118.106 31.892 117.859 31.892C117.611 31.892 117.373 31.9867 117.194 32.1565C117.015 32.3262 116.909 32.558 116.897 32.8035V34.2112H115.48C115.35 34.2053 115.22 34.2256 115.098 34.2709C114.976 34.3162 114.865 34.3855 114.771 34.4747C114.677 34.5639 114.602 34.6711 114.551 34.7898C114.5 34.9086 114.473 35.0363 114.473 35.1655C114.473 35.2946 114.5 35.4224 114.551 35.5411C114.602 35.6599 114.677 35.7671 114.771 35.8563C114.865 35.9455 114.976 36.0148 115.098 36.0601C115.22 36.1054 115.35 36.1257 115.48 36.1197H116.897V37.5275C116.909 37.773 117.015 38.0047 117.194 38.1745C117.373 38.3442 117.611 38.4389 117.859 38.4389C118.106 38.4389 118.344 38.3442 118.523 38.1745C118.702 38.0047 118.808 37.773 118.82 37.5275V36.1197H120.238C120.492 36.1197 120.737 36.0194 120.917 35.8407C121.098 35.662 121.199 35.4195 121.2 35.1665ZM111.975 29.8733V30.911H110.932C110.744 30.911 110.564 30.9852 110.431 31.1172C110.298 31.2492 110.223 31.4282 110.223 31.6149C110.223 31.8016 110.298 31.9806 110.431 32.1126C110.564 32.2446 110.744 32.3188 110.932 32.3188H111.977V33.3565C111.977 33.5432 112.052 33.7222 112.185 33.8542C112.318 33.9862 112.498 34.0604 112.686 34.0604C112.874 34.0604 113.055 33.9862 113.188 33.8542C113.321 33.7222 113.395 33.5432 113.395 33.3565V32.3148H114.434C114.622 32.3148 114.803 32.2406 114.936 32.1086C115.069 31.9766 115.143 31.7976 115.143 31.6109C115.143 31.4242 115.069 31.2452 114.936 31.1132C114.803 30.9812 114.622 30.907 114.434 30.907H113.389V29.8733C113.389 29.6866 113.314 29.5076 113.182 29.3756C113.049 29.2436 112.868 29.1694 112.68 29.1694C112.492 29.1694 112.312 29.2436 112.179 29.3756C112.046 29.5076 111.971 29.6866 111.971 29.8733H111.975ZM120.918 28.0151C120.757 28.0151 120.602 28.0786 120.489 28.1918C120.375 28.3049 120.311 28.4584 120.311 28.6184V29.5113H119.411C119.25 29.5113 119.095 29.5749 118.981 29.688C118.868 29.8012 118.804 29.9546 118.804 30.1146C118.804 30.2747 118.868 30.4281 118.981 30.5413C119.095 30.6544 119.25 30.718 119.411 30.718H120.311V31.6109C120.311 31.7709 120.375 31.9244 120.489 32.0375C120.602 32.1507 120.757 32.2142 120.918 32.2142C121.079 32.2142 121.234 32.1507 121.348 32.0375C121.462 31.9244 121.526 31.7709 121.526 31.6109V30.718H122.425C122.505 30.718 122.584 30.7024 122.658 30.672C122.731 30.6417 122.798 30.5973 122.855 30.5413C122.911 30.4852 122.956 30.4187 122.987 30.3455C123.017 30.2723 123.033 30.1939 123.033 30.1146C123.033 30.0354 123.017 29.957 122.987 29.8838C122.956 29.8106 122.911 29.7441 122.855 29.688C122.798 29.632 122.731 29.5876 122.658 29.5572C122.584 29.5269 122.505 29.5113 122.425 29.5113H121.526V28.6184C121.526 28.4584 121.462 28.3049 121.348 28.1918C121.234 28.0786 121.079 28.0151 120.918 28.0151Z" fill="white"/>
<defs>
<filter id="filter0_dddddd_1365_3960" x="0.246094" y="0.703704" width="230.951" height="252.247" filterUnits="userSpaceOnUse" color-interpolation-filters="sRGB">
<feFlood flood-opacity="0" result="BackgroundImageFix"/>
<feColorMatrix in="SourceAlpha" type="matrix" values="0 0 0 0 0 0 0 0 0 0 0 0 0 0 0 0 0 0 127 0" result="hardAlpha"/>
<feOffset dy="1.85185"/>
<feGaussianBlur stdDeviation="1.57407"/>
<feColorMatrix type="matrix" values="0 0 0 0 0.462745 0 0 0 0 0.592157 0 0 0 0 0.0117647 0 0 0 0.0168519 0"/>
<feBlend mode="normal" in2="BackgroundImageFix" result="effect1_dropShadow_1365_3960"/>
<feColorMatrix in="SourceAlpha" type="matrix" values="0 0 0 0 0 0 0 0 0 0 0 0 0 0 0 0 0 0 127 0" result="hardAlpha"/>
<feOffset dy="8.14815"/>
<feGaussianBlur stdDeviation="3.25926"/>
<feColorMatrix type="matrix" values="0 0 0 0 0.462745 0 0 0 0 0.592157 0 0 0 0 0.0117647 0 0 0 0.0274815 0"/>
<feBlend mode="normal" in2="effect1_dropShadow_1365_3960" result="effect2_dropShadow_1365_3960"/>
<feColorMatrix in="SourceAlpha" type="matrix" values="0 0 0 0 0 0 0 0 0 0 0 0 0 0 0 0 0 0 127 0" result="hardAlpha"/>
<feOffset dy="20"/>
<feGaussianBlur stdDeviation="6.5"/>
<feColorMatrix type="matrix" values="0 0 0 0 0.462745 0 0 0 0 0.592157 0 0 0 0 0.0117647 0 0 0 0.035 0"/>
<feBlend mode="normal" in2="effect2_dropShadow_1365_3960" result="effect3_dropShadow_1365_3960"/>
<feColorMatrix in="SourceAlpha" type="matrix" values="0 0 0 0 0 0 0 0 0 0 0 0 0 0 0 0 0 0 127 0" result="hardAlpha"/>
<feOffset dy="38.5185"/>
<feGaussianBlur stdDeviation="12.7407"/>
<feColorMatrix type="matrix" values="0 0 0 0 0.462745 0 0 0 0 0.592157 0 0 0 0 0.0117647 0 0 0 0.0425185 0"/>
<feBlend mode="normal" in2="effect3_dropShadow_1365_3960" result="effect4_dropShadow_1365_3960"/>
<feColorMatrix in="SourceAlpha" type="matrix" values="0 0 0 0 0 0 0 0 0 0 0 0 0 0 0 0 0 0 127 0" result="hardAlpha"/>
<feOffset dy="64.8148"/>
<feGaussianBlur stdDeviation="23.4259"/>
<feColorMatrix type="matrix" values="0 0 0 0 0.462745 0 0 0 0 0.592157 0 0 0 0 0.0117647 0 0 0 0.0531481 0"/>
<feBlend mode="normal" in2="effect4_dropShadow_1365_3960" result="effect5_dropShadow_1365_3960"/>
<feColorMatrix in="SourceAlpha" type="matrix" values="0 0 0 0 0 0 0 0 0 0 0 0 0 0 0 0 0 0 127 0" result="hardAlpha"/>
<feOffset dy="100"/>
<feGaussianBlur stdDeviation="40"/>
<feColorMatrix type="matrix" values="0 0 0 0 0.462745 0 0 0 0 0.592157 0 0 0 0 0.0117647 0 0 0 0.07 0"/>
<feBlend mode="normal" in2="effect5_dropShadow_1365_3960" result="effect6_dropShadow_1365_3960"/>
<feBlend mode="normal" in="SourceGraphic" in2="effect6_dropShadow_1365_3960" result="shape"/>
</filter>
</defs>
</svg>
